<svg width="830" height="391" viewBox="0 0 830 391" fill="none" xmlns="http://www.w3.org/2000/svg">
<path d="M75.5 2H1L2 376C9.2 388 23.6667 390 30 389.5H93C105.8 390.7 115 381 118 376V273H95C81.4 269.4 76.3333 260.5 75.5 256.5V2Z" stroke="black"/>
<path d="M195.5 2H161L160 256.5C160.4 265.3 149.167 270.833 143.5 272.5H120.5V374.5C123.3 386.5 138.667 389.167 146 389H215.5C231.5 385.8 235.833 378 236 374.5V272.5H213C199.8 267.3 195.833 259.667 195.5 256.5V2Z" stroke="black"/>
<path d="M355 2.5H280.5L280 255C277.6 267.4 266.667 271.833 261.5 272.5H238V374C242 385.6 258 389.5 265.5 390H327.5C345.1 390.4 353.167 379.5 355 374V2.5Z" stroke="black"/>
<path d="M431.5 1H357L358 375C365.2 387 379.667 389 386 388.5H449C461.8 389.7 471 380 474 375V272H451C437.4 268.4 432.333 259.5 431.5 255.5V1Z" stroke="black"/>
<path d="M551.5 1H517L516 255.5C516.4 264.3 505.167 269.833 499.5 271.5H476.5V373.5C479.3 385.5 494.667 388.167 502 388H571.5C587.5 384.8 591.833 377 592 373.5V271.5H569C555.8 266.3 551.833 258.667 551.5 255.5V1Z" stroke="black"/>
<path d="M670 2H635.5L634.5 256.5C634.9 265.3 623.667 270.833 618 272.5H595V374.5C597.8 386.5 613.167 389.167 620.5 389H690C706 385.8 710.333 378 710.5 374.5V272.5H687.5C674.3 267.3 670.333 259.667 670 256.5V2Z" stroke="black"/>
<path d="M829.5 2.5H755L754.5 255C752.1 267.4 741.167 271.833 736 272.5H712.5V374C716.5 385.6 732.5 389.5 740 390H802C819.6 390.4 827.667 379.5 829.5 374V2.5Z" stroke="black"/>
</svg>
